<svg xmlns="http://www.w3.org/2000/svg" viewBox="0 0 801.56 801.56"><defs><style>.cls-1{fill:none;}</style></defs><g id="Calque_2" data-name="Calque 2"><g id="Layer_1" data-name="Layer 1"><path class="cls-1" d="M400.78,0C179.43,0,0,179.43,0,400.78S179.43,801.56,400.78,801.56,801.56,622.14,801.56,400.78,622.14,0,400.78,0Zm0,738.94C214,738.94,62.62,587.55,62.62,400.78S214,62.62,400.78,62.62,738.94,214,738.94,400.78,587.55,738.94,400.78,738.94Z"/><path d="M209.34,370.5c-14.67,13.55-10.91,42.81,8.42,65.41s46.87,29.89,61.52,16.29,10.89-42.81-8.44-65.36S224,357,209.34,370.5Z"/><path d="M530.21,381.65c-17.2,24.42-18.27,53.94-2.42,66s42.59,2.05,59.76-22.39,18.25-53.86,2.42-65.92S547.36,357.31,530.21,381.65Z"/><path d="M354.11,376c25.81-6.22,39.23-44.77,30-86.11s-37.62-69.81-63.42-63.6-39.19,44.81-30,86.15S328.33,382.19,354.11,376Z"/><path d="M483.68,226.27c-25.78-6.21-54.18,22.26-63.43,63.6s4.16,79.89,30,86.11,54.19-22.26,63.43-63.56S509.47,232.53,483.68,226.27Z"/><path d="M400.78,411c-61.52,0-107.71,98-107.71,130.38,0,79.69,46.19-2.52,107.71-2.52S508.49,621,508.49,541.34C508.49,508.93,462.33,411,400.78,411Z"/></g></g></svg>